# xmcd
#
# Track frame offsets: 
#        150
#        52717
#        88817
#        107677
#        138625
#        151655
#
# Disc length: 2340 seconds
#
# Revision: 1
# Processed by: cddbd v1.5.2PL0 Copyright (c) Steve Scherf et al.
# Submitted via: ExactAudioCopy v0.95b4
#
DISCID=41092206
DTITLE=Lem Winchester - Lem's Beat
DYEAR=1960
DGENRE=Jazz
TTITLE0=Eddy's Dilemma
TTITLE1=Lem and Aide
TTITLE2=Friendly Persuasion
TTITLE3=Your Last Chance
TTITLE4=Lady Day
TTITLE5=Just Friends
EXTD=YEAR: 1960
EXTT0=
EXTT1=
EXTT2=
EXTT3=
EXTT4=
EXTT5=
PLAYORDER=
